<svg xmlns:dc="http://purl.org/dc/elements/1.1/" xmlns:cc="http://creativecommons.org/ns#" xmlns:rdf="http://www.w3.org/1999/02/22-rdf-syntax-ns#" xmlns:svg="http://www.w3.org/2000/svg" xmlns="http://www.w3.org/2000/svg" xmlns:sodipodi="http://sodipodi.sourceforge.net/DTD/sodipodi-0.dtd" xmlns:inkscape="http://www.inkscape.org/namespaces/inkscape" viewBox="0 0 8.4666667 10.583333374999999" version="1.1" x="0px" y="0px"><g transform="translate(0,-288.53333)"><path style="color:#000000;font-style:normal;font-variant:normal;font-weight:normal;font-stretch:normal;font-size:medium;line-height:normal;font-family:sans-serif;font-variant-ligatures:normal;font-variant-position:normal;font-variant-caps:normal;font-variant-numeric:normal;font-variant-alternates:normal;font-feature-settings:normal;text-indent:0;text-align:start;text-decoration:none;text-decoration-line:none;text-decoration-style:solid;text-decoration-color:#000000;letter-spacing:normal;word-spacing:normal;text-transform:none;writing-mode:lr-tb;direction:ltr;text-orientation:mixed;dominant-baseline:auto;baseline-shift:baseline;text-anchor:start;white-space:normal;shape-padding:0;clip-rule:nonzero;display:inline;overflow:visible;visibility:visible;opacity:1;isolation:auto;mix-blend-mode:normal;color-interpolation:sRGB;color-interpolation-filters:linearRGB;solid-color:#000000;solid-opacity:1;vector-effect:none;fill:#000000;fill-opacity:1;fill-rule:nonzero;stroke:none;stroke-width:0.5291667;stroke-linecap:butt;stroke-linejoin:miter;stroke-miterlimit:4;stroke-dasharray:none;stroke-dashoffset:0;stroke-opacity:1;color-rendering:auto;image-rendering:auto;shape-rendering:auto;text-rendering:auto;enable-background:accumulate" d="m 2.5683179,289.93378 -0.3741367,0.37413 0.6066816,0.60668 h -0.15503 c -1.0197438,0 -1.85208327,0.83234 -1.85208327,1.85209 0,1.01974 0.83233947,1.85208 1.85208327,1.85208 1.0197439,0 1.8520834,-0.83233 1.8520834,-1.85208 0,-0.73377 0.5891556,-1.32292 1.3229167,-1.32292 0.733761,0 1.3229166,0.58916 1.3229166,1.32292 0,0.73376 -0.5891556,1.32291 -1.3229166,1.32291 h -0.15503 l 0.6066816,-0.60668 -0.3741367,-0.37413 -1.2454017,1.2454 1.2454017,1.2454 0.3741367,-0.37414 -0.6066816,-0.60668 h 0.15503 c 1.0197438,0 1.8520833,-0.83234 1.8520833,-1.85208 0,-1.01975 -0.8323395,-1.85209 -1.8520833,-1.85209 -1.0197439,0 -1.8520834,0.83234 -1.8520834,1.85209 0,0.73376 -0.5891556,1.32291 -1.3229167,1.32291 -0.733761,0 -1.3229166,-0.58915 -1.3229166,-1.32291 0,-0.73376 0.5891556,-1.32292 1.3229166,-1.32292 h 0.15503 l -0.6066816,0.60668 0.3741367,0.37414 1.2454017,-1.2454 z"/></g><text x="0" y="23.466666699999998" fill="#000000" font-size="5px" font-weight="bold" font-family="'Helvetica Neue', Helvetica, Arial-Unicode, Arial, Sans-serif">Created by Nawicon</text><text x="0" y="28.466666699999998" fill="#000000" font-size="5px" font-weight="bold" font-family="'Helvetica Neue', Helvetica, Arial-Unicode, Arial, Sans-serif">from the Noun Project</text></svg>